<?xml version="1.0" encoding="UTF-8" standalone="no"?>
<!-- Created with Inkscape (http://www.inkscape.org/) -->

<svg
   width="137px"
   height="137px"
   viewBox="0 0 137 137"
   version="1.1"
   id="SVGRoot"
   sodipodi:docname="tppmap.svg"
   inkscape:version="1.1.1 (3bf5ae0d25, 2021-09-20)"
   xmlns:inkscape="http://www.inkscape.org/namespaces/inkscape"
   xmlns:sodipodi="http://sodipodi.sourceforge.net/DTD/sodipodi-0.dtd"
   xmlns:xlink="http://www.w3.org/1999/xlink"
   xmlns="http://www.w3.org/2000/svg"
   xmlns:svg="http://www.w3.org/2000/svg">
  <sodipodi:namedview
     id="namedview1182"
     pagecolor="#ffffff"
     bordercolor="#999999"
     borderopacity="1"
     inkscape:pageshadow="0"
     inkscape:pageopacity="0"
     inkscape:pagecheckerboard="0"
     inkscape:document-units="px"
     showgrid="false"
     inkscape:zoom="1.2810466"
     inkscape:cx="-107.72442"
     inkscape:cy="161.19632"
     inkscape:window-width="1920"
     inkscape:window-height="1009"
     inkscape:window-x="-8"
     inkscape:window-y="-8"
     inkscape:window-maximized="1"
     inkscape:current-layer="layer1"
     inkscape:lockguides="true">
    <sodipodi:guide
       position="0,137"
       orientation="0,137"
       id="guide1267"
       inkscape:locked="true" />
    <sodipodi:guide
       position="137,137"
       orientation="137,0"
       id="guide1269"
       inkscape:locked="true" />
    <sodipodi:guide
       position="137,0"
       orientation="0,-137"
       id="guide1271"
       inkscape:locked="true" />
    <sodipodi:guide
       position="0,0"
       orientation="-137,0"
       id="guide1273"
       inkscape:locked="true" />
  </sodipodi:namedview>
  <defs
     id="defs1177">
    <linearGradient
       inkscape:collect="always"
       xlink:href="#linearGradient929"
       id="linearGradient931"
       x1="0"
       y1="0"
       x2="16"
       y2="16"
       gradientUnits="userSpaceOnUse"
       gradientTransform="matrix(8.5616107,0,0,9.9264774,0.02203608,-21.791793)" />
    <linearGradient
       inkscape:collect="always"
       id="linearGradient929">
      <stop
         style="stop-color:#7b1404;stop-opacity:1"
         offset="0"
         id="stop925" />
      <stop
         style="stop-color:#f63516;stop-opacity:1"
         offset="1"
         id="stop927" />
    </linearGradient>
  </defs>
  <g
     inkscape:label="Layer 1"
     inkscape:groupmode="layer"
     id="layer1">
    <path
       d="m 26.134948,8.4839546 a 59.93127,69.485339 0 0 0 0,98.2721254 4.2808049,4.9632385 0 0 1 -6.053059,7.01801 68.49288,79.411815 0 0 1 0,-112.3081546 4.2808049,4.9632385 0 0 1 6.053059,7.0180192 z M 44.302683,29.547938 a 34.24644,39.705909 0 0 0 0,56.144155 4.2862126,4.9695082 0 1 1 -6.061619,7.027946 42.808049,49.632385 0 0 1 0,-70.200046 4.2862126,4.9695082 0 0 1 6.061619,7.027945 z m 48.424468,-7.027945 a 4.2808049,4.9632385 0 0 1 6.06162,0 42.808049,49.632385 0 0 1 0,70.200046 4.2862127,4.9695083 0 1 1 -6.06162,-7.027946 34.24644,39.705909 0 0 0 0,-56.144155 4.2808049,4.9632385 0 0 1 0,-7.027945 z M 110.8949,1.475862 a 4.2808049,4.9632385 0 0 1 6.05305,0 68.49288,79.411815 0 0 1 0,112.298228 4.2808049,4.9632385 0 0 1 -6.05305,-7.01801 59.93127,69.485339 0 0 0 0,-98.2721254 4.2808049,4.9632385 0 0 1 0,-7.0180192 z M 51.391697,57.620016 A 17.123219,19.852953 0 1 1 72.795724,76.847602 V 132.0686 a 4.280806,4.9632398 0 0 1 -8.561612,0 V 76.847602 A 17.123219,19.852953 0 0 1 51.391697,57.620016 Z"
       id="path2"
       style="fill:url(#linearGradient931);fill-opacity:1;stroke-width:9.21882" />
  </g>
</svg>
